HIERARCHY
ROOT Hips
{
	OFFSET 0.000000 83.214638 0.000000
	CHANNELS 6 Xposition Yposition Zposition Xrotation Yrotation Zrotation
	JOINT Pelvis
	{
		OFFSET 0.000000 0.000000 0.000000
		CHANNELS 3 Xrotation Yrotation Zrotation
		JOINT LeftUpLeg
		{
			OFFSET 8.479700 -4.795502 -0.379100
			CHANNELS 3 Xrotation Yrotation Zrotation
			JOINT LeftLeg
			{
				OFFSET 0.024144 -32.555107 0.112900
				CHANNELS 3 Xrotation Yrotation Zrotation
				JOINT LeftFoot
				{
					OFFSET -0.024144 -32.638630 -3.012600
					CHANNELS 3 Xrotation Yrotation Zrotation
					JOINT LeftToeBase
					{
						OFFSET 0.970200 -13.225400 11.864200
						CHANNELS 3 Xrotation Yrotation Zrotation
						End Site
						{
							OFFSET 0.000000 12.319262 0.000000
						}
					}
					JOINT LFootTongue
					{
						OFFSET 1.142400 -1.059800 6.665200
						CHANNELS 3 Xrotation Yrotation Zrotation
						End Site
						{
							OFFSET 0.000000 12.319262 0.000000
						}
					}
				}
				JOINT LeftPantLeg
				{
					OFFSET 0.918482 -16.533964 -2.284700
					CHANNELS 3 Xrotation Yrotation Zrotation
					End Site
					{
						OFFSET 0.350399 24.744368 0.000000
					}
				}
			}
		}
		JOINT RightUpLeg
		{
			OFFSET -8.479700 -4.795502 -0.379100
			CHANNELS 3 Xrotation Yrotation Zrotation
			JOINT RightLeg
			{
				OFFSET -0.023144 -32.555092 0.112900
				CHANNELS 3 Xrotation Yrotation Zrotation
				JOINT RightFoot
				{
					OFFSET 0.023144 -32.638641 -3.012700
					CHANNELS 3 Xrotation Yrotation Zrotation
					JOINT RightToeBase
					{
						OFFSET -0.970200 -13.225400 11.864200
						CHANNELS 3 Xrotation Yrotation Zrotation
						End Site
						{
							OFFSET 0.000000 12.319244 0.000000
						}
					}
					JOINT RFootTongue
					{
						OFFSET -1.142200 -1.059800 6.665200
						CHANNELS 3 Xrotation Yrotation Zrotation
						End Site
						{
							OFFSET 0.000000 12.319243 0.000000
						}
					}
				}
				JOINT RightPantLeg
				{
					OFFSET -0.919482 -16.533978 -2.284800
					CHANNELS 3 Xrotation Yrotation Zrotation
					End Site
					{
						OFFSET -0.350400 24.744419 0.000000
					}
				}
			}
		}
	}
	JOINT Spine
	{
		OFFSET 0.000000 7.722000 1.166200
		CHANNELS 3 Xrotation Yrotation Zrotation
		JOINT Spine1
		{
			OFFSET 0.000000 12.024101 0.248800
			CHANNELS 3 Xrotation Yrotation Zrotation
			JOINT Spine2
			{
				OFFSET 0.000000 11.502998 -0.491200
				CHANNELS 3 Xrotation Yrotation Zrotation
				JOINT Neck
				{
					OFFSET 0.000000 18.430702 -3.123100
					CHANNELS 3 Xrotation Yrotation Zrotation
					JOINT Head
					{
						OFFSET 0.000000 9.051102 1.034000
						CHANNELS 3 Xrotation Yrotation Zrotation
						JOINT HairB
						{
							OFFSET 0.208400 24.786102 24.822300
							CHANNELS 3 Xrotation Yrotation Zrotation
							End Site
							{
								OFFSET 0.000000 32.263779 0.000000
							}
						}
						JOINT HairA
						{
							OFFSET -7.081100 24.428299 23.196600
							CHANNELS 3 Xrotation Yrotation Zrotation
							End Site
							{
								OFFSET 0.000000 32.263779 0.000000
							}
						}
						JOINT Hat
						{
							OFFSET 16.728800 15.048294 -15.439601
							CHANNELS 3 Xrotation Yrotation Zrotation
							End Site
							{
								OFFSET 0.000000 32.263779 0.000000
							}
						}
					}
				}
				JOINT LeftShoulder
				{
					OFFSET 6.197800 13.665199 -4.064700
					CHANNELS 3 Xrotation Yrotation Zrotation
					JOINT LeftArm
					{
						OFFSET 7.778100 -0.187103 -1.709300
						CHANNELS 3 Xrotation Yrotation Zrotation
						JOINT LeftForeArm
						{
							OFFSET 22.049376 0.000000 0.000000
							CHANNELS 3 Xrotation Yrotation Zrotation
							JOINT LeftHand
							{
								OFFSET 23.009392 0.000000 0.000000
								CHANNELS 3 Xrotation Yrotation Zrotation
								JOINT LeftHandThumb1
								{
									OFFSET 3.507191 -2.063065 3.133727
									CHANNELS 3 Xrotation Yrotation Zrotation
									JOINT LeftHandThumb2
									{
										OFFSET 3.101337 -1.790558 1.790558
										CHANNELS 3 Xrotation Yrotation Zrotation
										JOINT LeftHandThumb3
										{
											OFFSET 3.058640 -1.765907 1.765906
											CHANNELS 3 Xrotation Yrotation Zrotation
											End Site
											{
												OFFSET -0.415260 3.926476 -0.049563
											}
										}
									}
								}
								JOINT LeftHandIndex1
								{
									OFFSET 11.334419 -0.901459 3.706815
									CHANNELS 3 Xrotation Yrotation Zrotation
									JOINT LeftHandIndex2
									{
										OFFSET 3.283112 0.000000 0.000000
										CHANNELS 3 Xrotation Yrotation Zrotation
										JOINT LeftHandIndex3
										{
											OFFSET 3.323853 0.000000 0.000000
											CHANNELS 3 Xrotation Yrotation Zrotation
											End Site
											{
												OFFSET -1.135597 3.097809 0.402452
											}
										}
									}
								}
								JOINT LeftHandMiddle1
								{
									OFFSET 11.335861 0.000000 0.000000
									CHANNELS 3 Xrotation Yrotation Zrotation
									JOINT LeftHandMiddle2
									{
										OFFSET 3.410492 0.000000 0.000000
										CHANNELS 3 Xrotation Yrotation Zrotation
										JOINT LeftHandMiddle3
										{
											OFFSET 3.312172 0.000000 0.000000
											CHANNELS 3 Xrotation Yrotation Zrotation
											End Site
											{
												OFFSET -1.150200 3.080154 0.400270
											}
										}
									}
								}
								JOINT LeftHandRing1
								{
									OFFSET 11.514786 -0.013176 -3.003090
									CHANNELS 3 Xrotation Yrotation Zrotation
									JOINT LeftHandRing2
									{
										OFFSET 3.053307 0.000000 0.000000
										CHANNELS 3 Xrotation Yrotation Zrotation
										JOINT LeftHandRing3
										{
											OFFSET 3.295807 0.000000 0.000000
											CHANNELS 3 Xrotation Yrotation Zrotation
											End Site
											{
												OFFSET -1.281006 3.013344 0.375733
											}
										}
									}
								}
								JOINT LeftHandPinky1
								{
									OFFSET 10.518692 -0.960396 -5.730441
									CHANNELS 3 Xrotation Yrotation Zrotation
									JOINT LeftHandPinky2
									{
										OFFSET 2.861649 0.000000 0.000000
										CHANNELS 3 Xrotation Yrotation Zrotation
										JOINT LeftHandPinky3
										{
											OFFSET 2.863380 0.000000 0.000000
											CHANNELS 3 Xrotation Yrotation Zrotation
											End Site
											{
												OFFSET -0.843597 2.711159 0.369971
											}
										}
									}
								}
							}
							JOINT LSleeve
							{
								OFFSET 6.676277 -0.344902 -1.011730
								CHANNELS 3 Xrotation Yrotation Zrotation
								End Site
								{
									OFFSET 0.000000 14.885353 0.000000
								}
							}
						}
					}
				}
				JOINT RightShoulder
				{
					OFFSET -6.197800 13.665199 -4.064700
					CHANNELS 3 Xrotation Yrotation Zrotation
					JOINT RightArm
					{
						OFFSET -7.778100 -0.187103 -1.709300
						CHANNELS 3 Xrotation Yrotation Zrotation
						JOINT RightForeArm
						{
							OFFSET -22.049376 0.000000 0.000000
							CHANNELS 3 Xrotation Yrotation Zrotation
							JOINT RightHand
							{
								OFFSET -23.009392 0.000000 0.000000
								CHANNELS 3 Xrotation Yrotation Zrotation
								JOINT RightHandThumb1
								{
									OFFSET -3.507191 -2.063065 3.133727
									CHANNELS 3 Xrotation Yrotation Zrotation
									JOINT RightHandThumb2
									{
										OFFSET -3.101337 -1.790558 1.790558
										CHANNELS 3 Xrotation Yrotation Zrotation
										JOINT RightHandThumb3
										{
											OFFSET -3.058640 -1.765907 1.765906
											CHANNELS 3 Xrotation Yrotation Zrotation
											End Site
											{
												OFFSET 0.415260 3.926476 -0.049563
											}
										}
									}
								}
								JOINT RightHandIndex1
								{
									OFFSET -11.334419 -0.901459 3.706815
									CHANNELS 3 Xrotation Yrotation Zrotation
									JOINT RightHandIndex2
									{
										OFFSET -3.283112 0.000000 0.000000
										CHANNELS 3 Xrotation Yrotation Zrotation
										JOINT RightHandIndex3
										{
											OFFSET -3.323853 0.000000 0.000000
											CHANNELS 3 Xrotation Yrotation Zrotation
											End Site
											{
												OFFSET 1.135597 3.097809 0.402452
											}
										}
									}
								}
								JOINT RightHandMiddle1
								{
									OFFSET -11.335861 0.000000 0.000000
									CHANNELS 3 Xrotation Yrotation Zrotation
									JOINT RightHandMiddle2
									{
										OFFSET -3.410492 0.000000 0.000000
										CHANNELS 3 Xrotation Yrotation Zrotation
										JOINT RightHandMiddle3
										{
											OFFSET -3.312172 0.000000 0.000000
											CHANNELS 3 Xrotation Yrotation Zrotation
											End Site
											{
												OFFSET 1.150200 3.080154 0.400270
											}
										}
									}
								}
								JOINT RightHandRing1
								{
									OFFSET -11.514786 -0.013176 -3.003090
									CHANNELS 3 Xrotation Yrotation Zrotation
									JOINT RightHandRing2
									{
										OFFSET -3.053307 0.000000 0.000000
										CHANNELS 3 Xrotation Yrotation Zrotation
										JOINT RightHandRing3
										{
											OFFSET -3.295807 0.000000 0.000000
											CHANNELS 3 Xrotation Yrotation Zrotation
											End Site
											{
												OFFSET 1.281006 3.013344 0.375733
											}
										}
									}
								}
								JOINT RightHandPinky1
								{
									OFFSET -10.518692 -0.960396 -5.730441
									CHANNELS 3 Xrotation Yrotation Zrotation
									JOINT RightHandPinky2
									{
										OFFSET -2.861649 0.000000 0.000000
										CHANNELS 3 Xrotation Yrotation Zrotation
										JOINT RightHandPinky3
										{
											OFFSET -2.863380 0.000000 0.000000
											CHANNELS 3 Xrotation Yrotation Zrotation
											End Site
											{
												OFFSET 0.843597 2.711159 0.369971
											}
										}
									}
								}
							}
							JOINT RSleeve
							{
								OFFSET -6.676277 -0.344902 -1.011730
								CHANNELS 3 Xrotation Yrotation Zrotation
								End Site
								{
									OFFSET 0.000000 14.885353 0.000000
								}
							}
						}
					}
				}
				JOINT Backpack
				{
					OFFSET 0.000000 -2.471497 36.677502
					CHANNELS 3 Xrotation Yrotation Zrotation
					End Site
					{
						OFFSET 0.000000 20.427315 0.000000
					}
				}
				JOINT Hood
				{
					OFFSET 0.000000 18.754097 -10.431000
					CHANNELS 3 Xrotation Yrotation Zrotation
					JOINT Hood1
					{
						OFFSET 0.000000 -5.011002 -7.685901
						CHANNELS 3 Xrotation Yrotation Zrotation
						End Site
						{
							OFFSET 0.000000 9.175140 0.000000
						}
					}
				}
				JOINT LHoodieString
				{
					OFFSET 5.250500 16.397697 3.089900
					CHANNELS 3 Xrotation Yrotation Zrotation
					JOINT LHoodieString1
					{
						OFFSET 0.257700 -6.364304 3.694600
						CHANNELS 3 Xrotation Yrotation Zrotation
						JOINT LHoodieString2
						{
							OFFSET 0.000000 -9.643799 2.679100
							CHANNELS 3 Xrotation Yrotation Zrotation
							End Site
							{
								OFFSET 0.000000 10.009018 0.000000
							}
						}
					}
				}
				JOINT RHoodieString
				{
					OFFSET -5.250500 16.397697 3.089900
					CHANNELS 3 Xrotation Yrotation Zrotation
					JOINT RHoodieString1
					{
						OFFSET -0.257700 -6.364304 3.694600
						CHANNELS 3 Xrotation Yrotation Zrotation
						JOINT RHoodieString2
						{
							OFFSET 0.000000 -9.643799 2.679100
							CHANNELS 3 Xrotation Yrotation Zrotation
							End Site
							{
								OFFSET 0.000000 10.009018 0.000000
							}
						}
					}
				}
			}
			JOINT LBackpack_Strap
			{
				OFFSET 15.223200 -7.719803 -6.610900
				CHANNELS 3 Xrotation Yrotation Zrotation
				End Site
				{
					OFFSET 0.000000 16.040596 0.000000
				}
			}
			JOINT RBackpack_Strap
			{
				OFFSET -15.223000 -7.719803 -6.610900
				CHANNELS 3 Xrotation Yrotation Zrotation
				End Site
				{
					OFFSET 0.000000 16.040596 0.000000
				}
			}
		}
	}
	JOINT BoyFacialAnim_Joint
	{
		OFFSET 1.000000 -82.208099 -1.550900
		CHANNELS 3 Xrotation Yrotation Zrotation
		End Site
		{
			OFFSET 0.000000 30.012791 0.000000
		}
	}
}
MOTION
Frames: 4
Frame Time: 0.033333
3.342669 63.720627 -3.449482 -2.209007 4.076949 2.255090 0.000000 -0.000000 0.000000 -62.451766 0.495077 5.161023 80.588576 -1.574766 -2.661566 -8.285636 -2.870986 -3.536270 0.000000 -0.000000 0.000000 0.000000 -0.000000 0.000000 0.000000 -0.000001 0.000000 -43.743974 11.505527 -24.330421 92.196045 0.605994 2.933468 2.507766 -11.221232 23.943553 0.000002 -0.000001 0.000002 0.000002 -0.000001 0.000002 0.000001 -0.000000 0.000001 10.796804 0.404615 -1.788053 21.592540 0.663890 -2.493980 21.592538 0.663889 -2.493980 -35.193284 -0.668821 -12.721261 -8.858539 -8.675135 8.581008 0.000001 -0.000000 0.000000 0.000001 -0.000000 0.000000 0.000001 -0.000000 0.000000 0.605233 -10.327799 -18.125022 -30.039479 -12.028590 -35.251703 -4.996319 -51.886656 -3.698391 44.207300 -1.160316 -3.749728 0.341514 27.371618 10.605500 -13.555118 4.004473 12.981963 0.000003 0.000000 0.000000 -2.452151 -4.909657 -14.420317 0.673201 1.082612 -50.408111 -0.000001 0.000000 -0.000002 0.774368 5.753736 -10.112087 -3.617400 -4.480873 -81.564350 -0.000001 -0.000000 -0.000003 3.548597 8.697068 -29.739846 -4.185676 -5.174250 -76.179709 -0.000002 0.000000 -0.000002 3.306236 7.619918 -33.605398 -4.598475 -7.454272 -58.505952 -0.000003 0.000001 -0.000002 0.000001 -0.000004 0.000001 14.943773 1.168687 -2.624780 -37.348151 0.452050 48.647397 -26.113463 80.641264 17.904089 87.489341 30.133347 -14.538777 16.619676 -9.121884 17.653626 -22.352643 -6.499086 -20.758016 0.000002 -0.000002 0.000000 3.469290 1.807363 25.439610 0.417747 -1.458023 27.373300 -0.000002 0.000000 0.000002 0.364826 -6.748451 27.848257 -1.032741 2.310888 49.612995 -0.000000 0.000001 -0.000002 -2.815023 -3.061938 33.263537 -3.392262 5.751149 59.421205 -0.000000 0.000000 0.000006 1.969920 -8.134324 31.838896 -6.572192 10.205810 59.299559 -0.000002 0.000001 -0.000001 0.000002 0.000001 -0.000002 0.000004 0.000000 -0.000001 0.000004 0.000000 -0.000001 0.000004 0.000000 -0.000001 0.000004 0.000000 -0.000001 0.000004 0.000000 -0.000001 0.000005 -0.000000 -0.000000 0.000004 0.000000 -0.000001 0.000004 0.000000 -0.000001 0.000005 -0.000000 -0.000000 0.000000 -0.000000 0.000000 0.000000 -0.000000 0.000000 0.000000 -0.000000 0.000000 
3.489885 66.369225 -2.809438 -0.928486 2.025822 3.399266 0.000000 0.000000 0.000000 -61.244947 1.200506 9.623086 74.766871 -7.421699 -2.878004 0.649282 -6.927999 -8.379639 -0.000001 0.000000 -0.000000 -0.000001 0.000000 0.000000 0.000001 -0.000000 -0.000000 -33.073880 11.660268 -21.956727 84.533331 -0.252875 2.625177 -9.290694 -15.616577 23.472162 -0.000000 0.000000 -0.000000 -0.000000 0.000000 -0.000000 -0.000002 -0.000001 -0.000001 9.955017 0.768393 -1.598364 19.922378 0.927977 -3.171639 19.922393 0.927977 -3.171642 -31.730808 1.518083 -14.803013 -10.540042 -6.828622 7.694369 -0.000000 0.000000 -0.000000 -0.000000 0.000000 -0.000000 -0.000000 0.000000 -0.000000 0.878304 -9.361212 -18.504200 -25.263126 -8.626023 -35.635416 -4.972982 -53.255702 -3.283648 40.295066 2.318517 -8.161296 0.429673 26.402661 10.290128 -13.192766 3.894649 12.675848 -0.000001 0.000000 -0.000002 -2.590262 -4.946718 -16.558071 0.680885 1.084900 -50.786585 -0.000002 -0.000003 -0.000002 0.910080 5.944044 -11.732886 -3.565634 -4.465965 -80.920154 0.000000 -0.000000 -0.000001 3.651404 8.408578 -30.911985 -4.219696 -5.186831 -76.533383 -0.000002 -0.000003 -0.000004 3.360002 7.572445 -35.163313 -4.744605 -7.481739 -59.716986 -0.000000 -0.000004 0.000003 0.000002 0.000000 0.000001 13.880293 0.098794 -0.772892 -35.934284 0.618961 49.990711 -23.937636 76.744217 17.182017 90.609672 13.842218 -13.950148 15.807400 -8.088709 17.288066 -22.009875 -6.468891 -20.295909 0.000005 0.000002 -0.000000 3.502845 2.085436 25.990173 0.439335 -1.481890 28.160168 0.000000 0.000002 0.000002 0.442864 -6.760905 28.672243 -1.116146 2.399439 51.630196 -0.000000 -0.000002 0.000003 -2.812947 -3.098776 34.188806 -3.567019 5.836871 61.153641 -0.000003 0.000000 0.000004 1.968567 -8.378780 33.240922 -6.802419 10.268982 60.569817 -0.000000 -0.000004 -0.000000 0.000001 0.000002 -0.000001 0.000000 -0.000000 0.000000 0.000000 -0.000000 0.000000 0.000000 -0.000000 0.000000 0.000000 -0.000000 0.000000 0.000000 -0.000000 0.000000 0.000002 -0.000001 -0.000000 0.000000 -0.000000 0.000000 0.000000 -0.000000 0.000000 0.000002 -0.000001 -0.000000 0.000001 0.000000 0.000000 0.000001 0.000000 0.000000 0.000000 0.000000 0.000000 
3.351855 68.769089 -2.235878 1.851044 0.105875 3.987171 -0.000000 -0.000000 -0.000000 -59.004727 2.488323 12.711507 69.745138 -8.777707 -2.855454 0.557340 -5.568092 -8.267520 0.000001 0.000000 -0.000000 0.000001 0.000000 0.000000 -0.000000 0.000000 -0.000000 -24.864062 10.826202 -18.719358 72.633543 -1.015300 2.293319 -25.307492 -22.996484 17.196396 0.000001 0.000002 -0.000000 0.000001 0.000002 -0.000000 0.000003 -0.000001 -0.000001 8.653238 0.950241 -1.562533 17.333307 1.230009 -3.632126 17.333301 1.230008 -3.632126 -28.930199 3.302444 -15.842093 -11.433921 -4.768004 6.722915 0.000000 -0.000000 -0.000000 0.000000 -0.000000 -0.000000 0.000000 -0.000000 -0.000000 1.230636 -8.599583 -18.242201 -19.223591 -2.808907 -35.608566 -4.175623 -54.252954 -2.608579 37.101502 3.538222 -10.355750 1.218344 25.881451 9.415287 -13.251735 3.974016 12.532996 -0.000000 -0.000001 0.000001 -2.583591 -5.059303 -17.251224 0.699749 1.089421 -51.735295 -0.000002 -0.000001 -0.000000 1.015437 6.103601 -12.580216 -3.546397 -4.459308 -80.693569 0.000000 0.000001 0.000004 3.740567 8.354510 -31.309218 -4.208982 -5.194388 -76.381678 -0.000001 0.000002 -0.000002 3.376404 7.696104 -35.864534 -4.776376 -7.493140 -60.027452 -0.000000 -0.000002 0.000001 -0.000000 -0.000001 -0.000001 13.013376 -1.537982 0.680842 -35.249773 1.338874 52.981695 -17.630405 71.081731 12.742797 86.666638 6.672557 -25.009311 14.953012 -6.839532 16.880145 -21.592477 -6.407299 -19.789971 -0.000001 0.000000 0.000000 3.509298 2.448159 26.289808 0.455584 -1.499215 28.735507 -0.000002 0.000002 0.000005 0.495854 -6.755257 29.321544 -1.188701 2.471324 53.328293 0.000000 0.000001 -0.000002 -2.714267 -3.292806 34.850156 -3.671061 5.885454 62.174222 0.000001 0.000001 0.000000 1.951523 -8.669251 34.396887 -6.935337 10.305703 61.285088 0.000002 -0.000002 -0.000000 0.000002 -0.000000 0.000001 0.000001 -0.000001 0.000000 0.000001 -0.000001 0.000000 0.000001 -0.000001 0.000000 0.000001 -0.000001 0.000000 0.000001 -0.000001 0.000000 0.000001 -0.000000 0.000000 0.000001 -0.000001 0.000000 0.000001 -0.000001 0.000000 0.000001 -0.000000 0.000000 -0.000001 -0.000000 -0.000000 -0.000001 -0.000000 -0.000000 -0.000000 -0.000000 -0.000000 
3.268456 70.238472 -2.058404 3.968684 -1.631183 4.352254 -0.000000 -0.000000 -0.000000 -57.626900 3.833864 14.771418 67.650196 -8.664179 -2.787382 -1.503538 -1.933083 -2.936883 -0.000001 0.000000 0.000000 -0.000001 0.000000 -0.000000 0.000001 -0.000000 -0.000000 -20.978494 9.692705 -17.251726 62.641523 -1.061477 2.066934 -34.486735 -26.428845 9.232071 0.000001 0.000000 0.000000 0.000001 0.000000 0.000000 0.000001 -0.000000 -0.000000 7.572295 1.054747 -1.488188 15.177956 1.523831 -3.561114 15.177961 1.523832 -3.561113 -27.002388 4.634530 -16.427331 -11.987186 -2.943167 5.855084 -0.000000 0.000000 0.000000 -0.000000 0.000000 0.000000 -0.000000 0.000000 0.000000 1.715799 -7.920681 -17.011672 -14.441648 3.175162 -36.989299 -3.084827 -52.964784 -1.820314 34.218636 2.385365 -9.171809 2.404022 25.493099 8.192498 -13.663436 4.213212 12.527474 0.000002 -0.000001 -0.000000 -2.552524 -5.273854 -17.421343 0.696920 1.089464 -51.573259 -0.000000 -0.000000 -0.000000 1.098437 6.223441 -12.970399 -3.520723 -4.447603 -80.408914 0.000000 -0.000001 -0.000003 3.860194 8.406933 -31.471811 -4.195662 -5.201814 -76.208519 -0.000002 -0.000001 -0.000000 3.385452 7.862104 -36.183108 -4.791252 -7.502413 -60.205331 -0.000000 -0.000000 -0.000004 -0.000002 0.000001 0.000003 12.455095 -2.741224 0.715007 -35.851670 -1.234771 57.258572 -11.483818 66.751377 8.299600 83.016633 9.418841 -24.557727 14.322488 -5.824475 16.572254 -21.062867 -6.299228 -19.217919 0.000000 -0.000000 0.000000 3.469012 2.943377 26.311202 0.470006 -1.514127 29.235669 -0.000002 -0.000000 0.000004 0.519720 -6.732892 29.763605 -1.229550 2.509179 54.261769 0.000003 0.000001 -0.000000 -2.616303 -3.483459 35.167346 -3.688733 5.895207 62.324055 -0.000000 0.000002 -0.000001 1.954789 -9.100802 35.089045 -6.985640 10.322917 61.533789 0.000000 0.000000 0.000000 0.000003 0.000001 0.000000 -0.000002 0.000000 0.000000 -0.000002 0.000000 0.000000 -0.000002 0.000000 0.000000 -0.000002 0.000000 0.000000 -0.000002 0.000000 0.000000 -0.000000 -0.000000 0.000000 -0.000002 0.000000 0.000000 -0.000002 0.000000 0.000000 -0.000000 -0.000000 0.000000 0.000001 0.000000 -0.000000 0.000001 0.000000 -0.000000 -0.000000 -0.000000 -0.000000 
